<svg width="981" height="980" viewBox="0 0 981 980" fill="none" xmlns="http://www.w3.org/2000/svg">
<path d="M478.92 2.27005C471.06 5.72005 463.01 15.49 461.67 23.16C461.1 26.61 460.71 59.57 461.1 96.75C461.67 161.33 461.87 164.4 465.7 169.38C473.17 179.54 479.31 182.6 491.38 182.6C503.45 182.6 509.58 179.53 517.06 169.38C520.89 164.21 521.08 161.91 521.08 91.58C521.08 21.25 520.89 18.95 517.06 13.78C514.95 10.91 510.93 6.69005 508.24 4.77005C501.91 -0.0299466 486.58 -1.36995 478.92 2.27005Z" fill="#DDDDDD"/>
<path d="M156.59 135.84C148.16 138.33 139.34 147.72 136.66 157.3C132.44 173.21 134.17 175.7 188.21 229.93C229.03 270.75 238.8 279.37 245.13 281.1C266.98 287.04 288.25 265.77 282.31 243.92C280.59 237.6 271.77 227.82 233.06 188.54C178.62 133.74 174.22 130.67 156.59 135.84Z" fill="#DDDDDD"/>
<path d="M804.7 137.38C799.91 139.68 779.4 158.84 749.7 188.55C710.41 228.41 702.17 237.61 700.45 243.93C694.7 265.78 715.78 287.05 737.63 281.11C743.95 279.39 753.73 270.57 793.01 231.86C843.98 181.08 849.35 174.18 846.86 160.76C843.21 140.44 822.33 128.75 804.7 137.38Z" fill="#DDDDDD"/>
<path d="M464.54 246.03C424.68 251.2 386.54 265.38 353.39 287.61C334.99 299.88 301.07 333.79 288.81 352.19C270.6 379.4 257.57 410.06 250.67 442.26C245.69 465.06 245.69 515.27 250.67 538.08C261.4 587.71 282.67 626.81 318.7 662.83C354.73 698.86 393.82 720.13 443.45 730.86C466.25 735.84 516.46 735.84 539.27 730.86C588.52 720.32 628.57 698.47 664.02 662.83C699.67 627.38 721.51 587.33 732.05 538.08C737.03 515.28 737.03 465.07 732.05 442.26C721.32 392.63 700.05 353.53 664.02 317.51C628.57 282.06 591.39 261.36 543.1 250.44C527.21 246.8 479.68 244.12 464.54 246.03ZM535.64 311.76C570.52 320.77 596.96 336.29 622.64 362.54C677.83 419.08 691.06 501.48 655.79 571.43C645.06 593.08 638.54 602.09 620.91 619.72C603.28 637.35 594.27 643.87 572.62 654.6C543.3 669.36 513.6 675.49 481.02 673.57C434.07 670.69 396.51 653.83 362.97 620.49C336.33 594.24 320.81 566.83 311.8 531.19C307.2 512.98 307.2 467.38 311.8 449.17C320.42 414.87 336.33 386.5 361.05 361.59C389.22 332.84 420.26 316.36 459.36 308.89C478.53 305.25 516.67 306.59 535.64 311.76Z" fill="#DDDDDD"/>
<path d="M18.99 462.2C6.14999 467.75 -1.13001 482.51 1.54999 496.88C3.26999 505.89 12.86 516.43 21.48 518.92C26.08 520.26 52.14 520.84 96.98 520.45C162.52 519.87 165.58 519.68 170.57 515.85C180.73 508.38 183.8 502.25 183.8 490.18C183.8 478.11 180.73 471.97 170.58 464.5C165.6 460.67 162.72 460.48 95.08 460.09C39.5 459.71 23.59 460.09 18.99 462.2Z" fill="#DDDDDD"/>
<path d="M816.19 462.2C803.35 467.76 796.07 482.51 798.75 496.88C800.47 505.89 810.06 516.43 818.68 518.92C823.28 520.26 849.34 520.84 894.18 520.45C959.72 519.87 962.79 519.68 967.77 515.85C977.93 508.38 981 502.25 981 490.18C981 478.11 977.93 471.97 967.78 464.5C962.8 460.67 959.92 460.48 892.28 460.09C836.7 459.71 820.79 460.09 816.19 462.2Z" fill="#DDDDDD"/>
<path d="M243.21 700.02C237.46 702.13 223.85 714.58 187.44 751.19C147.96 790.86 138.76 801.02 136.85 807.34C130.33 829.57 151.99 851.22 174.22 844.71C180.54 842.79 190.7 833.59 231.14 793.35C271.96 752.53 280.58 742.76 282.31 736.43C288.43 713.43 265.63 691.97 243.21 700.02Z" fill="#DDDDDD"/>
<path d="M720.38 700.02C705.24 705.39 696.43 721.48 700.45 736.43C702.18 742.75 710.99 752.53 749.7 791.81C801.06 843.36 807.19 847.96 821.37 845.66C831.72 843.74 843.22 833.39 846.09 823.05C850.31 807.34 848.2 804.27 796.46 752.14C770.4 725.89 747.02 703.46 744.34 701.93C736.28 697.72 728.42 697.14 720.38 700.02Z" fill="#DDDDDD"/>
<path d="M478.92 799.48C471.06 802.93 463.01 812.7 461.67 820.37C461.1 823.82 460.71 856.78 461.1 893.96C461.67 958.54 461.87 961.61 465.7 966.59C473.17 976.75 479.31 979.81 491.38 979.81C503.45 979.81 509.58 976.74 517.06 966.59C520.89 961.42 521.08 959.12 521.08 888.79C521.08 818.46 520.89 816.16 517.06 810.99C514.95 808.12 510.93 803.9 508.24 801.98C501.91 797.18 486.58 795.83 478.92 799.48Z" fill="#DDDDDD"/>
</svg>
