<svg width="977" height="944" viewBox="0 0 977 944" fill="none" xmlns="http://www.w3.org/2000/svg">
<path d="M403.174 908.723C415.974 921.523 431.774 931.323 448.774 937.223C453.674 938.923 458.774 940.323 463.875 941.423C486.375 946.223 510.475 944.023 531.875 935.623C547.175 929.623 561.175 920.423 572.875 908.723L940.875 540.723C987.774 493.824 987.774 417.923 940.875 371.024C893.975 324.124 818.074 324.124 771.175 371.024L608.075 534.124L608.075 120.124C608.075 53.8242 554.375 0.124207 488.075 0.124207C421.774 0.124207 368.075 53.8242 368.075 120.124L368.075 534.124L204.974 371.024C181.575 347.624 150.874 335.923 120.075 335.923C89.2738 335.923 58.6747 347.623 35.1747 371.024C-11.7253 417.923 -11.7253 493.824 35.1747 540.723L403.174 908.723Z" fill="#EEEEEE"/>
</svg>
