<svg width="30" height="30" viewBox="0 0 30 30" fill="none" xmlns="http://www.w3.org/2000/svg">
<path d="M0 28.125L11.25 18.75L0 9.5625V28.125Z" fill="#DDDDDD"/>
<path d="M16.875 18.9375L28.125 28.125V9.375L16.875 18.9375ZM26.25 24.1875L19.875 18.9375L26.25 13.3125V24.1875Z" fill="#DDDDDD"/>
<path d="M13.125 9.375H15V11.25H13.125V9.375Z" fill="#DDDDDD"/>
<path d="M13.125 5.625H15V7.5H13.125V5.625Z" fill="#DDDDDD"/>
<path d="M13.125 13.125H15V15H13.125V13.125Z" fill="#DDDDDD"/>
<path d="M13.125 16.875H15V18.75H13.125V16.875Z" fill="#DDDDDD"/>
<path d="M13.125 20.625H15V22.5H13.125V20.625Z" fill="#DDDDDD"/>
<path d="M13.125 24.375H15V26.25H13.125V24.375Z" fill="#DDDDDD"/>
<path d="M13.125 28.125H15V30H13.125V28.125Z" fill="#DDDDDD"/>
<path d="M14.0625 1.875C16.5 1.875 18.9375 3.1875 20.8125 5.4375L18.75 7.5H24.375V1.875L22.125 4.125C19.875 1.5 17.0625 0 14.0625 0C10.5 0 7.3125 1.875 4.875 5.4375L6.375 6.5625C8.4375 3.5625 11.0625 1.875 14.0625 1.875Z" fill="#DDDDDD"/>
</svg>
