<svg width="16" height="16" viewBox="0 0 16 16" fill="none" xmlns="http://www.w3.org/2000/svg">
<path d="M1 0L6 6L10.9 0L1 0Z" fill="#EEEEEE"/>
<path d="M5.9 9L1 15L11 15L5.9 9ZM3.1 14L5.9 10.6L8.9 14L3.1 14Z" fill="#EEEEEE"/>
<path d="M11 7V8H10V7H11Z" fill="#EEEEEE"/>
<path d="M13 7V8H12V7H13Z" fill="#EEEEEE"/>
<path d="M9 7V8H8V7H9Z" fill="#EEEEEE"/>
<path d="M7 7V8H6V7H7Z" fill="#EEEEEE"/>
<path d="M5 7V8H4V7H5Z" fill="#EEEEEE"/>
<path d="M3 7V8H2L2 7H3Z" fill="#EEEEEE"/>
<path d="M1 7L1 8H0L0 7H1Z" fill="#EEEEEE"/>
<path d="M15 7.5C15 8.8 14.3 10.1 13.1 11.1L12 10V13H15L13.8 11.8C15.2 10.6 16 9.1 16 7.5C16 5.6 15 3.9 13.1 2.6L12.5 3.4C14.1 4.5 15 5.9 15 7.5Z" fill="#EEEEEE"/>
</svg>
