<svg width="30" height="30" viewBox="0 0 30 30" fill="none" xmlns="http://www.w3.org/2000/svg">
<path d="M30 28.125L18.75 18.75L30 9.5625V28.125Z" fill="#DDDDDD"/>
<path d="M13.125 18.9375L1.875 28.125V9.375L13.125 18.9375ZM3.75 24.1875L10.125 18.9375L3.75 13.3125V24.1875Z" fill="#DDDDDD"/>
<path d="M16.875 9.375H15V11.25H16.875V9.375Z" fill="#DDDDDD"/>
<path d="M16.875 5.625H15V7.5H16.875V5.625Z" fill="#DDDDDD"/>
<path d="M16.875 13.125H15V15H16.875V13.125Z" fill="#DDDDDD"/>
<path d="M16.875 16.875H15V18.75H16.875V16.875Z" fill="#DDDDDD"/>
<path d="M16.875 20.625H15V22.5H16.875V20.625Z" fill="#DDDDDD"/>
<path d="M16.875 24.375H15V26.25H16.875V24.375Z" fill="#DDDDDD"/>
<path d="M16.875 28.125H15V30H16.875V28.125Z" fill="#DDDDDD"/>
<path d="M15.9375 1.875C13.5 1.875 11.0625 3.1875 9.1875 5.4375L11.25 7.5H5.625V1.875L7.875 4.125C10.125 1.5 12.9375 0 15.9375 0C19.5 0 22.6875 1.875 25.125 5.4375L23.625 6.5625C21.5625 3.5625 18.9375 1.875 15.9375 1.875Z" fill="#DDDDDD"/>
</svg>
