<svg width="274" height="151" viewBox="0 0 274 151" fill="none" xmlns="http://www.w3.org/2000/svg">
<path fill-rule="evenodd" clip-rule="evenodd" d="M154.34 33H270.54C272.38 33 273.88 34.5 273.88 36.34V113.32C273.88 115.16 272.38 116.66 270.54 116.66H154.34C152.5 116.66 151 115.16 151 113.32V36.34C151 34.5 152.5 33 154.34 33ZM197.29 121.27H227.59C227.67 126.51 229.83 131.21 235.68 134.9H189.2C193.88 131.51 197.31 127.39 197.29 121.27ZM212.44 105.41C214.81 105.41 216.73 107.33 216.73 109.7C216.73 112.07 214.81 113.99 212.44 113.99C210.07 113.99 208.15 112.07 208.15 109.7C208.15 107.33 210.07 105.41 212.44 105.41ZM161.05 39.29H263.84C265.47 39.29 266.79 40.62 266.79 42.24V99.76C266.79 101.38 265.46 102.71 263.84 102.71H161.05C159.43 102.71 158.1 101.38 158.1 99.76V42.24C158.09 40.62 159.42 39.29 161.05 39.29Z" fill="#EEEEEE"/>
<path d="M212 46.5C198.47 46.5 187.5 57.47 187.5 71C187.5 84.53 198.47 95.5 212 95.5C225.53 95.5 236.5 84.53 236.5 71C236.5 57.47 225.53 46.5 212 46.5ZM220.185 79.34V83.67H203.87C204.045 82.035 204.575 80.49 205.46 79.025C206.34 77.56 208.085 75.62 210.69 73.2C212.785 71.245 214.07 69.92 214.545 69.225C215.185 68.265 215.505 67.315 215.505 66.375C215.505 65.335 215.23 64.535 214.675 63.98C214.12 63.42 213.355 63.145 212.38 63.145C211.415 63.145 210.645 63.44 210.075 64.025C209.505 64.61 209.175 65.585 209.09 66.945L204.435 66.48C204.71 63.92 205.575 62.08 207.03 60.96C208.485 59.845 210.305 59.285 212.49 59.285C214.885 59.285 216.765 59.93 218.135 61.22C219.505 62.515 220.185 64.12 220.185 66.04C220.185 67.135 219.99 68.175 219.595 69.16C219.205 70.15 218.585 71.185 217.735 72.265C217.17 72.98 216.155 74.015 214.68 75.365C213.21 76.71 212.275 77.605 211.885 78.045C211.495 78.49 211.175 78.92 210.935 79.34H220.185Z" fill="#EEEEEE"/>
<path fill-rule="evenodd" clip-rule="evenodd" d="M3.34 33H119.54C121.38 33 122.88 34.5 122.88 36.34V113.32C122.88 115.16 121.38 116.66 119.54 116.66H3.34C1.5 116.66 0 115.16 0 113.32V36.34C0 34.5 1.5 33 3.34 33ZM46.29 121.27H76.59C76.67 126.51 78.83 131.21 84.68 134.9H38.2C42.88 131.51 46.31 127.39 46.29 121.27ZM61.44 105.41C63.81 105.41 65.73 107.33 65.73 109.7C65.73 112.07 63.81 113.99 61.44 113.99C59.07 113.99 57.15 112.07 57.15 109.7C57.15 107.33 59.07 105.41 61.44 105.41ZM10.05 39.29H112.84C114.47 39.29 115.79 40.62 115.79 42.24V99.76C115.79 101.38 114.46 102.71 112.84 102.71H10.05C8.43 102.71 7.1 101.38 7.1 99.76V42.24C7.09 40.62 8.42 39.29 10.05 39.29Z" fill="#EEEEEE"/>
<path d="M84 70.4999C84 56.9688 73.0308 46 59.4996 46C45.9687 46 35 56.9688 35 70.4999C35 84.0312 45.9687 95 59.4998 95C73.0307 95 84 84.0313 84 70.4999ZM64.4181 83.7657C64.4181 84.7678 63.606 85.5802 62.6037 85.5802H59.2615C58.2595 85.5802 57.4469 84.768 57.4469 83.7657V63.4008L55.3785 64.5175C54.8862 64.7832 54.2991 64.8072 53.7871 64.5823C53.2749 64.3575 52.8955 63.9091 52.7576 63.3668L52.0972 60.7641C51.8922 59.9554 52.2645 59.1116 52.9998 58.7182L58.7609 55.6346C59.0241 55.4935 59.3183 55.4198 59.6171 55.4198H62.6035C63.6056 55.4198 64.4179 56.2322 64.4179 57.2343L64.4181 83.7657Z" fill="#EEEEEE"/>
<path d="M133.558 4.80769C139.808 4.80769 146.058 8.17308 150.865 13.9423L145.577 19.2308H160V4.80769L154.231 10.5769C148.462 3.84615 141.25 0 133.558 0C124.423 0 116.25 4.80769 110 13.9423L113.846 16.8269C119.135 9.13462 125.865 4.80769 133.558 4.80769Z" fill="#EEEEEE"/>
<path d="M136.442 145.423C130.192 145.423 123.942 142.058 119.135 136.288L124.423 131H110V145.423L115.769 139.654C121.538 146.385 128.75 150.231 136.442 150.231C145.577 150.231 153.75 145.423 160 136.288L156.154 133.404C150.865 141.096 144.135 145.423 136.442 145.423Z" fill="#EEEEEE"/>
</svg>
