<svg width="256" height="135" viewBox="0 0 256 135" fill="none" xmlns="http://www.w3.org/2000/svg">
<path fill-rule="evenodd" clip-rule="evenodd" d="M136.34 33H252.54C254.38 33 255.88 34.5 255.88 36.34V113.32C255.88 115.16 254.38 116.66 252.54 116.66H136.34C134.5 116.66 133 115.16 133 113.32V36.34C133 34.5 134.5 33 136.34 33ZM179.29 121.27H209.59C209.67 126.51 211.83 131.21 217.68 134.9H171.2C175.88 131.51 179.31 127.39 179.29 121.27ZM194.44 105.41C196.81 105.41 198.73 107.33 198.73 109.7C198.73 112.07 196.81 113.99 194.44 113.99C192.07 113.99 190.15 112.07 190.15 109.7C190.15 107.33 192.07 105.41 194.44 105.41ZM143.05 39.29H245.84C247.47 39.29 248.79 40.62 248.79 42.24V99.76C248.79 101.38 247.46 102.71 245.84 102.71H143.05C141.43 102.71 140.1 101.38 140.1 99.76V42.24C140.09 40.62 141.42 39.29 143.05 39.29Z" fill="#EEEEEE"/>
<path d="M194 46.5C180.47 46.5 169.5 57.47 169.5 71C169.5 84.53 180.47 95.5 194 95.5C207.53 95.5 218.5 84.53 218.5 71C218.5 57.47 207.53 46.5 194 46.5ZM202.185 79.34V83.67H185.87C186.045 82.035 186.575 80.49 187.46 79.025C188.34 77.56 190.085 75.62 192.69 73.2C194.785 71.245 196.07 69.92 196.545 69.225C197.185 68.265 197.505 67.315 197.505 66.375C197.505 65.335 197.23 64.535 196.675 63.98C196.12 63.42 195.355 63.145 194.38 63.145C193.415 63.145 192.645 63.44 192.075 64.025C191.505 64.61 191.175 65.585 191.09 66.945L186.435 66.48C186.71 63.92 187.575 62.08 189.03 60.96C190.485 59.845 192.305 59.285 194.49 59.285C196.885 59.285 198.765 59.93 200.135 61.22C201.505 62.515 202.185 64.12 202.185 66.04C202.185 67.135 201.99 68.175 201.595 69.16C201.205 70.15 200.585 71.185 199.735 72.265C199.17 72.98 198.155 74.015 196.68 75.365C195.21 76.71 194.275 77.605 193.885 78.045C193.495 78.49 193.175 78.92 192.935 79.34H202.185Z" fill="#EEEEEE"/>
<path d="M87.11 34H10.89C4.9 34 0 38.9 0 44.89V96.62C0 102.61 4.9 107.51 10.89 107.51H87.11C93.1 107.51 98 102.61 98 96.62V44.89C98 38.9 93.1 34 87.11 34ZM93.92 95.48C93.92 100.97 91.47 103.42 85.98 103.42H12.03C6.54 103.42 4.09 100.97 4.09 95.48V46.02C4.09 40.53 6.54 38.08 12.03 38.08H85.98C91.47 38.08 93.92 40.53 93.92 46.02V95.48ZM30.63 62.58L40.83 70.75L67.37 48.29L87.79 66.67V97.3H10.21V78.92L30.63 62.58ZM18.38 44.21C13.87 44.21 10.21 47.87 10.21 52.38C10.21 56.89 13.87 60.55 18.38 60.55C22.89 60.55 26.55 56.89 26.55 52.38C26.55 47.87 22.89 44.21 18.38 44.21Z" fill="#EEEEEE"/>
<path d="M115.558 4.80769C121.808 4.80769 128.058 8.17308 132.865 13.9423L127.577 19.2308H142V4.80769L136.231 10.5769C130.462 3.84615 123.25 0 115.558 0C106.423 0 98.25 4.80769 92 13.9423L95.8462 16.8269C101.135 9.13462 107.865 4.80769 115.558 4.80769Z" fill="#EEEEEE"/>
</svg>
