<svg width="265" height="265" viewBox="0 0 265 265" fill="none" xmlns="http://www.w3.org/2000/svg">
<g clip-path="url(#clip0)">
<path d="M262.267 42.077C260.908 40.937 259.119 40.457 257.366 40.766L257.106 40.812C241.158 43.653 224.781 43.654 208.817 40.811L208.563 40.766C206.813 40.458 205.021 40.937 203.662 42.077C202.303 43.218 201.517 44.9 201.517 46.675V57.202H62.896V46.675C62.896 44.902 62.112 43.219 60.752 42.079C59.394 40.938 57.6 40.46 55.854 40.766L55.589 40.813C39.639 43.653 23.265 43.655 7.297 40.811L7.042 40.766C5.296 40.46 3.503 40.939 2.144 42.079C0.784 43.219 0 44.901 0 46.675V217.737C0 219.451 0.732 221.083 2.014 222.221C3.293 223.359 4.999 223.893 6.702 223.696L15.386 222.673C26.025 221.419 36.872 221.419 47.511 222.673L56.194 223.696C56.428 223.723 56.663 223.737 56.896 223.737C58.358 223.737 59.779 223.203 60.882 222.221C62.163 221.082 62.896 219.45 62.896 217.737V202.207H201.517V217.737C201.517 219.451 202.249 221.083 203.531 222.221C204.811 223.359 206.515 223.893 208.219 223.696L216.902 222.673C227.541 221.419 238.388 221.419 249.027 222.673L257.71 223.696C257.944 223.723 258.179 223.737 258.412 223.737C259.874 223.737 261.295 223.203 262.398 222.221C263.679 221.082 264.412 219.45 264.412 217.737V46.675C264.411 44.9 263.626 43.218 262.267 42.077ZM50.896 210.987L48.916 210.754C37.35 209.391 25.549 209.391 13.982 210.754L12 210.987V53.677C24.924 55.373 37.979 55.371 50.896 53.678V63.202V196.206V210.987ZM62.896 190.206V69.202H201.517V190.206H62.896V190.206ZM252.411 210.987L250.431 210.754C238.865 209.391 227.064 209.391 215.497 210.754L213.517 210.987V196.206V63.202V53.677C226.443 55.372 239.496 55.371 252.412 53.678V210.987H252.411Z" fill="#EEEEEE"/>
<path d="M40.457 69.725H22.457V80.205H40.457V69.725Z" fill="#EEEEEE"/>
<path d="M40.457 93.2H22.457V103.68H40.457V93.2Z" fill="#EEEEEE"/>
<path d="M40.457 116.674H22.457V127.154H40.457V116.674Z" fill="#EEEEEE"/>
<path d="M40.457 140.149H22.457V150.629H40.457V140.149Z" fill="#EEEEEE"/>
<path d="M40.457 163.624H22.457V174.104H40.457V163.624Z" fill="#EEEEEE"/>
<path d="M40.457 187.098H22.457V197.578H40.457V187.098Z" fill="#EEEEEE"/>
<path d="M241.964 69.725H223.964V80.205H241.964V69.725Z" fill="#EEEEEE"/>
<path d="M241.964 93.2H223.964V103.68H241.964V93.2Z" fill="#EEEEEE"/>
<path d="M241.964 116.674H223.964V127.154H241.964V116.674Z" fill="#EEEEEE"/>
<path d="M241.964 140.149H223.964V150.629H241.964V140.149Z" fill="#EEEEEE"/>
<path d="M241.964 163.624H223.964V174.104H241.964V163.624Z" fill="#EEEEEE"/>
<path d="M241.964 187.098H223.964V197.578H241.964V187.098Z" fill="#EEEEEE"/>
<path d="M157.242 122.927L122.622 99.983C117.218 96.4 110 100.276 110 106.76V152.649C110 159.133 117.218 163.008 122.622 159.426L157.242 136.482C162.094 133.266 162.094 126.142 157.242 122.927Z" fill="#EEEEEE"/>
</g>
<defs>
<clipPath id="clip0">
<rect width="264.411" height="264.411" fill="white"/>
</clipPath>
</defs>
</svg>
