<svg width="420" height="180" viewBox="0 0 420 180" fill="none" xmlns="http://www.w3.org/2000/svg">
<path d="M240 0V180H420V0H240ZM406.154 13.8462V166.154H253.846L290.625 129.375C280.933 118.99 274.615 105.231 274.615 90C274.615 59.5385 299.538 34.6154 330 34.6154C345.231 34.6154 358.99 40.9327 369.375 50.625L406.154 13.8462ZM369.375 50.625L290.625 129.375C301.01 139.067 314.769 145.385 330 145.385C360.462 145.385 385.385 120.462 385.385 90C385.385 74.7692 379.067 61.0096 369.375 50.625Z" fill="#EEEEEE"/>
<path d="M12.9801 81.284H121.436V165.888H12.9801V81.284Z" fill="#EEEEEE"/>
<path d="M63.2398 45.5563C63.2398 62.8524 49.2801 76.8805 32.0477 76.8805C14.8277 76.8805 0.867569 62.8527 0.867569 45.5563C0.867569 28.2402 14.8273 14.2203 32.0477 14.2203C49.2754 14.2203 63.2398 28.2402 63.2398 45.5563Z" fill="#EEEEEE"/>
<path d="M131.848 45.4242C131.848 62.7363 117.884 76.7601 100.652 76.7601C83.452 76.7601 69.4762 62.7363 69.4762 45.4242C69.4762 28.1242 83.4523 14.1082 100.652 14.1082C117.884 14.1082 131.848 28.1242 131.848 45.4242Z" fill="#EEEEEE"/>
<path d="M128.3 102.98H143.496V144.2H128.3V102.98Z" fill="#EEEEEE"/>
<path d="M150.184 102.432V139.316L175.132 164.26V82.916L150.184 102.432Z" fill="#EEEEEE"/>
</svg>
