<svg width="111" height="111" viewBox="0 0 111 111" fill="none" xmlns="http://www.w3.org/2000/svg">
<g clip-path="url(#clip0)">
<path d="M83.0928 84.1702C77.2716 89.9913 69.855 93.9556 61.7808 95.5617C53.7066 97.1677 45.3375 96.3434 37.7318 93.193C30.1261 90.0427 23.6254 84.7077 19.0517 77.8627C14.4781 71.0177 12.0369 62.9702 12.0369 54.7379C12.0369 46.5055 14.4781 38.458 19.0517 31.6131C23.6254 24.7681 30.1261 19.4331 37.7318 16.2827C45.3375 13.1323 53.7066 12.308 61.7808 13.9141C69.855 15.5201 77.2716 19.4844 83.0928 25.3056" stroke="#DDDDDD" stroke-width="2.00041"/>
<path d="M83.0937 25.3043L89.2256 19.173L92.9048 35.116L76.9617 31.4364L83.0937 25.3043Z" fill="#DDDDDD" stroke="#DDDDDD"/>
</g>
<defs>
<clipPath id="clip0">
<rect width="111" height="111" fill="white"/>
</clipPath>
</defs>
</svg>
