<svg width="111" height="111" viewBox="0 0 111 111" fill="none" xmlns="http://www.w3.org/2000/svg">
<g clip-path="url(#clip0)">
<path d="M27.9072 84.1702C33.7284 89.9913 41.145 93.9556 49.2192 95.5617C57.2934 97.1677 65.6625 96.3434 73.2682 93.193C80.8739 90.0427 87.3746 84.7077 91.9483 77.8627C96.5219 71.0177 98.9631 62.9702 98.9631 54.7379C98.9631 46.5055 96.5219 38.458 91.9483 31.6131C87.3746 24.7681 80.8739 19.4331 73.2682 16.2827C65.6625 13.1323 57.2934 12.308 49.2192 13.9141C41.145 15.5201 33.7284 19.4844 27.9072 25.3056" stroke="#DDDDDD" stroke-width="2.00041"/>
<path d="M27.9063 25.3043L21.7744 19.173L18.0952 35.116L34.0383 31.4364L27.9063 25.3043Z" fill="#DDDDDD" stroke="#DDDDDD"/>
</g>
<defs>
<clipPath id="clip0">
<rect width="111" height="111" fill="white" transform="matrix(-1 0 0 1 111 0)"/>
</clipPath>
</defs>
</svg>
