<svg width="50" height="50" viewBox="0 0 50 50" fill="none" xmlns="http://www.w3.org/2000/svg">
<path d="M6.25 6.25V9.375H9.375V6.25H6.25ZM12.5 6.25V9.375H15.625V6.25H12.5ZM18.75 6.25V9.375H21.875V6.25H18.75ZM25 6.25V9.375H28.125V6.25H25ZM31.25 6.25V9.375H34.375V6.25H31.25ZM37.5 6.25V9.375H40.625V6.25H37.5ZM6.25 12.5V15.625H9.375V12.5H6.25ZM37.5 12.5V15.625H40.625V12.5H37.5ZM6.25 18.75V21.875H9.375V18.75H6.25ZM37.5 18.75V21.875H40.625V18.75H37.5ZM22.6562 20.3125L22.168 20.9473L20.3125 23.4375H14.0625H12.5V25V42.1875V43.75H14.0625H42.1875H43.75V42.1875V25V23.4375H42.1875H35.9375L34.082 20.9473L33.5938 20.3125H32.8125H23.4375H22.6562ZM24.2188 23.4375H32.0312L33.8867 25.9277L34.375 26.5625H35.1562H40.625V40.625H15.625V26.5625H21.0938H21.875L22.3633 25.9277L24.2188 23.4375ZM6.25 25V28.125H9.375V25H6.25ZM28.125 26.5625C24.6917 26.5625 21.875 29.3792 21.875 32.8125C21.875 36.2458 24.6917 39.0625 28.125 39.0625C31.5583 39.0625 34.375 36.2458 34.375 32.8125C34.375 29.3792 31.5583 26.5625 28.125 26.5625ZM28.125 29.6875C29.8694 29.6875 31.25 31.0681 31.25 32.8125C31.25 34.5569 29.8694 35.9375 28.125 35.9375C26.3806 35.9375 25 34.5569 25 32.8125C25 31.0681 26.3806 29.6875 28.125 29.6875ZM6.25 31.25V34.375H9.375V31.25H6.25Z" fill="#DDDDDD"/>
</svg>
