<svg width="977" height="944" viewBox="0 0 977 944" fill="none" xmlns="http://www.w3.org/2000/svg">
<path d="M572.875 35.326C560.075 22.526 544.275 12.726 527.275 6.82601C522.375 5.12601 517.275 3.72601 512.174 2.62601C489.674 -2.17399 465.574 0.0260086 444.174 8.42601C428.874 14.426 414.874 23.626 403.174 35.326L35.174 403.326C-11.725 450.225 -11.725 526.126 35.174 573.025C82.074 619.925 157.975 619.925 204.874 573.025L367.974 409.925V823.925C367.974 890.225 421.674 943.925 487.974 943.925C554.275 943.925 607.974 890.225 607.974 823.925V409.925L771.075 573.025C794.474 596.425 825.175 608.126 855.974 608.126C886.775 608.126 917.374 596.426 940.874 573.025C987.774 526.126 987.774 450.225 940.874 403.326L572.875 35.326Z" fill="#EEEEEE"/>
</svg>
