<svg width="512" height="512" viewBox="0 0 512 512" fill="none" xmlns="http://www.w3.org/2000/svg">
<path d="M63.949 233.687H341.596V450.273H63.949V233.687V233.687Z" fill="#EEEEEE"/>
<path d="M192.614 142.224C192.614 186.502 156.877 222.414 112.762 222.414C68.679 222.414 32.941 186.503 32.941 142.224C32.941 97.895 68.678 62.004 112.762 62.004C156.865 62.004 192.614 97.895 192.614 142.224Z" fill="#EEEEEE"/>
<path d="M368.251 141.886C368.251 186.205 332.503 222.106 288.389 222.106C244.357 222.106 208.579 186.205 208.579 141.886C208.579 97.598 244.358 61.717 288.389 61.717C332.503 61.717 368.251 97.598 368.251 141.886Z" fill="#EEEEEE"/>
<path d="M359.168 289.229H398.07V394.752H359.168V289.229V289.229Z" fill="#EEEEEE"/>
<path d="M415.191 287.826V382.249L479.058 446.105V237.865L415.191 287.826Z" fill="#EEEEEE"/>
</svg>
