<svg width="187" height="187" viewBox="0 0 187 187" fill="none" xmlns="http://www.w3.org/2000/svg">
<path d="M93.038 0C41.737 0 0 41.737 0 93.038C0 144.339 41.737 186.076 93.038 186.076C144.339 186.076 186.076 144.339 186.076 93.038C186.076 41.737 144.339 0 93.038 0ZM93.038 176.076C47.25 176.076 10 138.826 10 93.038C10 47.25 47.25 10 93.038 10C138.826 10 176.076 47.25 176.076 93.038C176.076 138.826 138.826 176.076 93.038 176.076Z" fill="#EEEEEE"/>
<path d="M93.038 19.341C52.401 19.341 19.341 52.402 19.341 93.038C19.341 133.674 52.402 166.735 93.038 166.735C133.674 166.735 166.735 133.674 166.735 93.038C166.735 52.402 133.675 19.341 93.038 19.341ZM93.038 160.735C55.709 160.735 25.341 130.366 25.341 93.038C25.341 55.71 55.71 25.341 93.038 25.341C130.366 25.341 160.735 55.71 160.735 93.038C160.735 130.366 130.367 160.735 93.038 160.735Z" fill="#EEEEEE"/>
<path d="M115.656 53.862L99.938 81.088C104.064 83.48 106.853 87.935 106.853 93.038H138.28C138.28 76.294 129.177 61.686 115.656 53.862Z" fill="#EEEEEE"/>
<path d="M93.038 106.853C90.524 106.853 88.172 106.167 86.139 104.988L70.42 132.214C77.076 136.065 84.796 138.28 93.038 138.28C101.28 138.28 109.001 136.065 115.656 132.214L99.937 104.988C97.904 106.167 95.552 106.853 93.038 106.853Z" fill="#EEEEEE"/>
<path d="M86.139 81.088L70.42 53.862C56.899 61.685 47.796 76.294 47.796 93.038H79.223C79.224 87.935 82.012 83.48 86.139 81.088Z" fill="#EEEEEE"/>
<path d="M93.038 101.853C97.898 101.853 101.852 97.899 101.852 93.039C101.852 88.179 97.898 84.225 93.038 84.225C88.178 84.225 84.224 88.179 84.224 93.039C84.224 97.899 88.178 101.853 93.038 101.853Z" fill="#EEEEEE"/>
</svg>
